HIERARCHY
ROOT hip
{
	OFFSET 0.000000 0.000000 0.000000
	CHANNELS 6 Xposition Yposition Zposition Zrotation Yrotation Xrotation 
	JOINT lhipjoint
	{
		OFFSET 0.000000 0.000000 0.000000
		CHANNELS 3 Zrotation Yrotation Xrotation
		JOINT lfemur
		{
			OFFSET 1.363060 -1.794630 0.839290
			CHANNELS 3 Zrotation Yrotation Xrotation
			JOINT ltibia
			{
				OFFSET 2.448110 -6.726130 0.000000
				CHANNELS 3 Zrotation Yrotation Xrotation
				JOINT lfoot
				{
					OFFSET 2.562200 -7.039590 0.000000
					CHANNELS 3 Zrotation Yrotation Xrotation
					JOINT ltoes
					{
						OFFSET 0.157640 -0.433110 2.322550
						CHANNELS 3 Zrotation Yrotation Xrotation
						End Site
						{
							OFFSET 0.000000 0.000000 0.000000
						}
					}
				}
			}
		}
	}
	JOINT rhipjoint
	{
		OFFSET 0.000000 0.000000 0.000000
		CHANNELS 3 Zrotation Yrotation Xrotation
		JOINT rfemur
		{
			OFFSET -1.305520 -1.794630 0.839290
			CHANNELS 3 Zrotation Yrotation Xrotation
			JOINT rtibia
			{
				OFFSET -2.542530 -6.985550 0.000000
				CHANNELS 3 Zrotation Yrotation Xrotation
				JOINT rfoot
				{
					OFFSET -2.568260 -7.056230 0.000000
					CHANNELS 3 Zrotation Yrotation Xrotation
					JOINT rtoes
					{
						OFFSET -0.164730 -0.452590 2.363150
						CHANNELS 3 Zrotation Yrotation Xrotation
						End Site
						{
							OFFSET 0.000000 0.000000 0.000000
						}
					}
				}
			}
		}
	}
	JOINT lowerback
	{
		OFFSET 0.000000 0.000000 0.000000
		CHANNELS 3 Zrotation Yrotation Xrotation
		JOINT upperback
		{
			OFFSET 0.028270 2.035590 -0.193380
			CHANNELS 3 Zrotation Yrotation Xrotation
			JOINT thorax
			{
				OFFSET 0.056720 2.048850 -0.042750
				CHANNELS 3 Zrotation Yrotation Xrotation
				JOINT lowerneck
				{
					OFFSET 0.000000 0.000000 0.000000
					CHANNELS 3 Zrotation Yrotation Xrotation
					JOINT upperneck
					{
						OFFSET -0.054170 1.746240 0.172020
						CHANNELS 3 Zrotation Yrotation Xrotation
						JOINT head
						{
							OFFSET 0.104070 1.761360 -0.123970
							CHANNELS 3 Zrotation Yrotation Xrotation
							End Site
							{
								OFFSET 0.000000 0.000000 0.000000
							}
						}
					}
				}
				JOINT lclavicle
				{
					OFFSET 0.000000 0.000000 0.000000
					CHANNELS 3 Zrotation Yrotation Xrotation
					JOINT lhumerus
					{
						OFFSET 3.362410 1.200890 -0.311210
						CHANNELS 3 Zrotation Yrotation Xrotation
						JOINT lradius
						{
							OFFSET 4.983000 -0.000000 -0.000000
							CHANNELS 3 Zrotation Yrotation Xrotation
							JOINT lwrist
							{
								OFFSET 3.483560 -0.000000 -0.000000
								CHANNELS 3 Zrotation Yrotation Xrotation
								JOINT lhand
								{
									OFFSET 0.000000 0.000000 0.000000
									CHANNELS 3 Zrotation Yrotation Xrotation
									JOINT lfingers
									{
										OFFSET 0.715260 -0.000000 -0.000000
										CHANNELS 3 Zrotation Yrotation Xrotation
										End Site
										{
											OFFSET 0.000000 0.000000 0.000000
										}
									}
								}
								JOINT lthumb
								{
									OFFSET 0.000000 0.000000 0.000000
									CHANNELS 3 Zrotation Yrotation Xrotation
									End Site
									{
										OFFSET 0.000000 0.000000 0.000000
									}
								}
							}
						}
					}
				}
				JOINT rclavicle
				{
					OFFSET 0.000000 0.000000 0.000000
					CHANNELS 3 Zrotation Yrotation Xrotation
					JOINT rhumerus
					{
						OFFSET -3.136600 1.374050 -0.404650
						CHANNELS 3 Zrotation Yrotation Xrotation
						JOINT rradius
						{
							OFFSET -5.241900 -0.000000 -0.000000
							CHANNELS 3 Zrotation Yrotation Xrotation
							JOINT rwrist
							{
								OFFSET -3.444170 -0.000000 -0.000000
								CHANNELS 3 Zrotation Yrotation Xrotation
								JOINT rhand
								{
									OFFSET 0.000000 0.000000 0.000000
									CHANNELS 3 Zrotation Yrotation Xrotation
									JOINT rfingers
									{
										OFFSET -0.622530 -0.000000 -0.000000
										CHANNELS 3 Zrotation Yrotation Xrotation
										End Site
										{
											OFFSET 0.000000 0.000000 0.000000
										}
									}
								}
								JOINT rthumb
								{
									OFFSET 0.000000 0.000000 0.000000
									CHANNELS 3 Zrotation Yrotation Xrotation
									End Site
									{
										OFFSET 0.000000 0.000000 0.000000
									}
								}
							}
						}
					}
				}
			}
		}
	}
}
MOTION
Frames: 11
Frame Time: 0.008333
-0.466797 27.712984 28.302377 179.072161 -31.614544 -179.165753 9.487750 2.024934 -1.370870 -25.304451 -7.736162 -22.402241 10.632284 18.745229 61.674402 2.752990 -3.556396 -0.478242 0.248000 -3.204300 -8.848000 -14.646434 -3.411157 -1.410058 44.059392 16.381986 -11.721292 -4.573320 -13.197690 38.431487 -0.126417 -3.318522 -5.191905 -0.055200 1.516500 -4.171300 3.488576 0.650076 21.376920 0.336900 0.487816 -1.921069 -1.218790 0.930814 -1.709353 -5.644379 -0.053433 -3.494070 4.648916 -0.969420 17.121126 2.989100 -1.320500 5.679400 0.247828 -5.766025 2.589587 -86.987353 12.309159 2.025121 5.026633 -32.707664 -3.164904 -0.064371 2.221693 24.320258 6.892146 -3.478898 -0.755700 -7.125000 0.000000 0.000000 -13.937000 24.453400 7.121000 -2.021967 7.381945 4.991081 80.051150 -9.046365 32.979199 -30.758612 46.737151 -8.646576 -0.047149 -4.965511 3.440380 -18.133061 8.272321 -4.467900 7.125000 0.000000 0.000000 6.081500 -15.829600 4.216100 
-0.516353 27.726717 28.269340 178.984023 -30.964728 -178.904621 9.527422 1.980831 -1.394388 -25.465194 -8.481424 -21.877207 9.949636 18.405938 59.591692 3.048672 -4.445896 -0.345163 0.322600 -3.650900 -10.096400 -14.667744 -3.342152 -1.371203 44.016387 16.990398 -11.434881 -4.534984 -13.148328 38.256517 -0.138718 -3.286045 -5.310136 -0.053900 1.497700 -4.119400 3.363656 0.714864 21.170171 0.313282 0.519448 -1.921426 -1.358012 0.959809 -1.669460 -5.626822 0.002518 -3.505368 4.604595 -0.872005 17.080579 2.979600 -1.269000 5.616400 0.121198 -5.794926 2.579859 -86.878830 12.892430 2.914668 5.843171 -33.482218 -3.314535 -0.113137 2.242517 23.255480 6.479775 -3.635795 -0.739900 -7.125000 0.000000 0.000000 -14.208800 24.287900 7.324800 -1.966591 7.419449 5.009158 80.043358 -9.542081 33.594461 -31.380730 47.216149 -8.873124 -0.016824 -5.002624 2.894326 -18.268097 8.309387 -4.526800 7.125000 0.000000 0.000000 5.999000 -15.731400 4.171100 
-0.565013 27.737961 28.237696 178.889129 -30.288030 -178.640591 9.568529 1.937884 -1.418375 -25.633051 -9.268330 -21.286088 9.287189 18.051587 57.548679 3.361085 -5.414866 -0.156391 0.371000 -3.912200 -10.829800 -14.683313 -3.275749 -1.329750 43.942984 17.560239 -11.244234 -4.517787 -13.133164 38.189368 -0.172217 -3.186190 -5.404387 -0.056900 1.539300 -4.234000 3.176908 0.781404 20.976128 0.295183 0.549124 -1.918436 -1.377675 0.978757 -1.619065 -5.701616 0.060012 -3.497268 4.554734 -0.761965 17.015991 2.985700 -1.214000 5.523000 0.007841 -5.820390 2.570907 -86.854926 13.478328 3.786627 6.712204 -34.332751 -3.491064 -0.157993 2.278590 22.143333 6.139401 -3.728769 -0.723400 -7.125000 0.000000 0.000000 -14.431800 24.166600 7.489000 -1.906449 7.435847 5.033500 79.918968 -9.945505 34.288941 -31.979778 47.639879 -9.089108 0.018372 -5.025668 2.182998 -18.364307 8.352179 -4.570200 7.125000 0.000000 0.000000 5.951000 -15.646800 4.148200 
-0.612080 27.740250 28.206948 178.812617 -29.636792 -178.414939 9.607436 1.894857 -1.442144 -25.773468 -10.007638 -20.667077 8.671892 17.695001 55.632451 3.652167 -6.355457 0.162981 0.404100 -4.080900 -11.304300 -14.693587 -3.213187 -1.279958 43.867927 18.108552 -11.113394 -4.518601 -13.147313 38.217444 -0.222594 -3.033624 -5.519198 -0.059800 1.577400 -4.339200 3.017706 0.831396 20.842458 0.276183 0.563187 -1.921270 -1.459897 0.992457 -1.639362 -5.705888 0.119934 -3.428946 4.495853 -0.658496 16.952560 2.964900 -1.158500 5.424000 -0.103334 -5.856606 2.561264 -86.800079 14.064062 4.534733 7.589579 -35.125598 -3.676814 -0.200014 2.306723 21.079743 5.820925 -3.816075 -0.705800 -7.125000 0.000000 0.000000 -14.643000 24.056400 7.644600 -1.856411 7.480180 5.056842 79.883496 -10.339620 34.876038 -32.511196 48.029989 -9.285451 0.040075 -5.053389 1.637997 -18.498171 8.439447 -4.640500 7.125000 0.000000 0.000000 5.878000 -15.505900 4.114600 
-0.658352 27.736270 28.177095 178.776037 -28.979066 -178.175496 9.641787 1.856514 -1.468787 -25.865875 -10.605210 -20.150080 8.133846 17.362120 53.942054 3.881076 -7.131898 0.588816 0.432300 -4.219300 -11.694400 -14.698293 -3.155938 -1.218204 43.789662 18.654414 -11.093698 -4.531882 -13.190925 38.323006 -0.287639 -2.834804 -5.609295 -0.061900 1.605200 -4.415700 2.861736 0.871979 20.688263 0.258956 0.566631 -1.922548 -1.515047 0.999490 -1.651696 -5.741077 0.195413 -3.336075 4.441729 -0.528443 16.867393 2.957100 -1.088900 5.291700 -0.211730 -5.880299 2.557423 -86.750648 14.595196 5.202852 8.429074 -35.870594 -3.869525 -0.231047 2.337384 20.036718 5.653260 -3.875093 -0.699700 -7.125000 0.000000 0.000000 -14.753300 23.965300 7.738300 -1.807794 7.507213 5.084583 79.767847 -10.662823 35.553919 -33.000370 48.383209 -9.471143 0.063831 -5.077089 0.918566 -18.664708 8.547832 -4.722900 7.125000 0.000000 0.000000 5.792800 -15.342500 4.074800 
-0.702733 27.735473 28.146247 178.725235 -28.334102 -177.982743 9.667249 1.828358 -1.490636 -25.949288 -11.006190 -19.717648 7.686160 17.067610 52.527034 4.097794 -7.896205 1.024874 0.441000 -4.261000 -11.812000 -14.692238 -3.112094 -1.164878 43.680833 19.066751 -11.091921 -4.558961 -13.248650 38.489032 -0.391611 -2.504857 -5.634220 -0.060000 1.580600 -4.347900 2.692050 0.912911 20.612737 0.241206 0.572059 -1.929640 -1.562806 1.007239 -1.740913 -5.799330 0.273285 -3.172729 4.406369 -0.403503 16.779307 2.971800 -1.028100 5.150300 -0.310286 -5.928317 2.552276 -86.760172 15.122724 5.607848 9.204599 -36.519271 -4.057760 -0.253514 2.363501 19.210718 5.549666 -3.976937 -0.703900 -7.125000 0.000000 0.000000 -14.814800 23.836500 7.818400 -1.782544 7.558940 5.112385 79.719989 -10.979028 36.106405 -33.383405 48.669384 -9.620782 0.067970 -5.100037 0.337802 -18.858262 8.758324 -4.845400 7.125000 0.000000 0.000000 5.698100 -15.069700 4.041000 
-0.744030 27.736966 28.115598 178.731267 -27.695698 -177.802629 9.687027 1.810250 -1.511044 -25.990582 -11.239559 -19.455257 7.345694 16.828805 51.421337 4.220171 -8.340937 1.297805 0.470700 -4.400400 -12.205900 -14.685868 -3.076380 -1.108575 43.621886 19.443513 -11.150972 -4.589266 -13.318326 38.683745 -0.492793 -2.183846 -5.670660 -0.064100 1.633000 -4.492500 2.548100 0.939839 20.538316 0.229623 0.569544 -1.935062 -1.569118 1.006928 -1.805293 -5.844414 0.339735 -3.048552 4.337884 -0.284203 16.667557 2.947700 -0.960100 5.004900 -0.369792 -5.961429 2.550336 -86.839560 15.485600 5.770401 9.841299 -37.043646 -4.227723 -0.266871 2.396890 18.531325 5.568887 -4.029830 -0.716400 -7.125000 0.000000 0.000000 -14.792800 23.746600 7.837900 -1.754138 7.597802 5.138073 79.665074 -11.239386 36.579634 -33.718169 48.911037 -9.750414 0.062484 -5.113207 -0.162586 -18.999957 9.027281 -4.969200 7.125000 0.000000 0.000000 5.643600 -14.753800 4.040300 
-0.783634 27.734777 28.084054 178.724176 -27.063655 -177.645890 9.704687 1.802270 -1.531645 -26.100487 -11.289733 -19.256608 7.097893 16.642750 50.594454 4.324094 -8.716659 1.390729 0.486900 -4.474200 -12.414700 -14.671041 -3.052821 -1.054390 43.528539 19.730791 -11.243366 -4.632944 -13.403857 38.937152 -0.619199 -1.776525 -5.663781 -0.068200 1.685500 -4.637200 2.389880 0.963489 20.526101 0.216259 0.557133 -1.943882 -1.585626 1.003935 -1.889036 -5.915351 0.418248 -2.970820 4.275355 -0.146588 16.555089 2.939300 -0.887400 4.889400 -0.425028 -6.000915 2.543693 -86.910543 15.735770 5.779448 10.367126 -37.440412 -4.378505 -0.269734 2.427096 18.096698 5.710081 -4.081481 -0.741700 -7.125000 0.000000 0.000000 -14.684700 23.659900 7.807200 -1.743464 7.643433 5.154134 79.642052 -11.480168 36.972258 -34.002386 49.122071 -9.866678 0.052559 -5.129965 -0.583228 -19.174077 9.296201 -5.105300 7.125000 0.000000 0.000000 5.566300 -14.429600 4.023000 
-0.822542 27.731692 28.052410 178.770139 -26.449914 -177.545949 9.717092 1.803338 -1.547885 -26.171553 -11.242113 -19.112986 6.948835 16.514037 50.050026 4.362745 -8.839841 1.212313 0.484300 -4.462700 -12.382200 -14.651976 -3.041989 -1.000946 43.473939 19.924784 -11.385032 -4.691312 -13.512417 39.270042 -0.773660 -1.273421 -5.641034 -0.072400 1.736200 -4.777000 2.284223 0.978121 20.576068 0.207310 0.550104 -1.956756 -1.610575 1.002275 -2.001954 -5.951760 0.494163 -2.933200 4.219110 -0.015873 16.442892 2.918800 -0.815800 4.806500 -0.474231 -6.056308 2.527585 -86.971821 16.012572 5.878337 10.991367 -37.917368 -4.559980 -0.276668 2.467176 17.524327 5.862137 -4.074002 -0.762900 -7.125000 0.000000 0.000000 -14.573300 23.620000 7.757900 -1.731119 7.709928 5.162090 79.704833 -11.741782 37.164000 -34.294717 49.324468 -9.980858 0.043768 -5.147249 -0.771343 -19.263741 9.487743 -5.196800 7.125000 0.000000 0.000000 5.529900 -14.197100 4.023900 
-0.860455 27.719253 28.020567 178.821531 -25.857148 -177.415403 9.728692 1.813132 -1.563876 -26.239607 -11.121309 -19.062916 6.890215 16.450413 49.784915 4.379756 -8.863574 0.805613 0.459400 -4.347900 -12.057700 -14.623691 -3.044140 -0.937812 43.371455 20.067512 -11.680087 -4.773319 -13.661892 39.721254 -0.952018 -0.687225 -5.573744 -0.074000 1.754800 -4.828600 2.167553 0.972256 20.596198 0.201819 0.512725 -1.969153 -1.625905 0.983806 -2.052343 -5.985242 0.568147 -3.040963 4.140442 0.121540 16.344689 2.876300 -0.739100 4.786500 -0.513962 -6.096372 2.501613 -87.022620 16.235711 6.051854 11.692133 -38.464846 -4.777917 -0.288864 2.529046 16.931264 6.135414 -3.874515 -0.777700 -7.125000 0.000000 0.000000 -14.383900 23.745700 7.607500 -1.724851 7.758898 5.154883 79.793213 -11.889449 37.265030 -34.454417 49.451228 -10.056989 0.024815 -5.163967 -0.802654 -19.450339 9.695768 -5.324800 7.125000 0.000000 0.000000 5.426200 -13.933900 3.978100 
-0.897771 27.694973 27.990615 178.988995 -25.276129 -177.389615 9.732902 1.832659 -1.583059 -26.214242 -10.846278 -19.050177 6.928132 16.446668 49.809323 4.369325 -8.766187 0.158928 0.444900 -4.279500 -11.864500 -14.588182 -3.062771 -0.874545 43.366944 20.101425 -12.024595 -4.876429 -13.844860 40.289307 -1.172867 0.048635 -5.488270 -0.074800 1.764600 -4.855500 2.200468 0.961099 20.699822 0.196479 0.495642 -1.981097 -1.744516 0.980336 -2.130345 -5.939300 0.626671 -3.147903 4.070535 0.240125 16.214535 2.826900 -0.663700 4.756600 -0.569355 -6.132142 2.479879 -86.940426 16.416930 6.322027 12.432536 -38.996189 -5.008148 -0.306290 2.578426 16.353338 6.359662 -3.651885 -0.781400 -7.125000 0.000000 0.000000 -14.232900 23.907900 7.467400 -1.713368 7.820658 5.145496 79.949645 -12.052628 37.251366 -34.661286 49.614220 -10.147826 0.018045 -5.190108 -0.700976 -19.583257 9.760216 -5.398400 7.125000 0.000000 0.000000 5.337500 -13.816900 3.925700 
